<!-- Generated by IcoMoon.io -->
<svg version="1.1" xmlns="http://www.w3.org/2000/svg" width="1126" height="1024" viewBox="0 0 1126 1024">
<title></title>
<path d="M541.408 342.806c-12.29-27.655-50.251-30.888-67.040-5.709l-73.95 110.903h-93.218c-21.208 0-38.4 17.192-38.4 38.4s17.192 38.4 38.4 38.4h113.766c12.838 0 24.827-6.415 31.949-17.097l46.644-69.952 85.433 192.243c12.29 27.655 50.251 30.888 67.040 5.709l73.95-110.903h93.218c21.208 0 38.4-17.192 38.4-38.4s-17.192-38.4-38.4-38.4h-113.766c-12.838 0-24.827 6.415-31.949 17.097l-46.644 69.952-85.433-192.243z"></path>
<path d="M776.090 89.6c148.434 0 267.11 139.437 267.11 293.069 0 21.208 17.192 38.4 38.4 38.4s38.4-17.192 38.4-38.4c0-193.548-150.068-369.869-343.91-369.869-21.208 0-38.4 17.192-38.4 38.4s17.192 38.4 38.4 38.4z"></path>
<path d="M350.31 12.8c-193.842 0-343.91 176.321-343.91 369.869 0 21.208 17.192 38.4 38.4 38.4s38.4-17.192 38.4-38.4c0-153.632 118.676-293.069 267.11-293.069 21.208 0 38.4-17.192 38.4-38.4s-17.192-38.4-38.4-38.4z"></path>
<path d="M592.394 174.705c44.951-52.607 105.674-85.105 183.696-85.105 21.208 0 38.4-17.192 38.4-38.4s-17.192-38.4-38.4-38.4c-102.349 0-183.466 43.413-242.084 112.015-13.777 16.123-11.875 40.362 4.249 54.139s40.362 11.875 54.139-4.249z"></path>
<path d="M592.394 124.815c-58.618-68.602-139.735-112.015-242.084-112.015-21.208 0-38.4 17.192-38.4 38.4s17.192 38.4 38.4 38.4c78.022 0 138.745 32.498 183.696 85.105 13.777 16.123 38.016 18.026 54.139 4.249s18.026-38.016 4.249-54.139z"></path>
<path d="M6.4 382.669c0 162.455 88.976 318.026 233.425 448.829 113.569 102.841 254.031 179.702 323.375 179.702s209.806-76.862 323.375-179.702c144.448-130.803 233.425-286.374 233.425-448.829 0-21.208-17.192-38.4-38.4-38.4s-38.4 17.192-38.4 38.4c0 137.37-78.324 274.316-208.175 391.901-100.725 91.21-226.127 159.83-271.825 159.83s-171.1-68.621-271.825-159.83c-129.851-117.585-208.175-254.531-208.175-391.901 0-21.208-17.192-38.4-38.4-38.4s-38.4 17.192-38.4 38.4z"></path>
</svg>
