<!-- Generated by IcoMoon.io -->
<svg version="1.1" xmlns="http://www.w3.org/2000/svg" width="1024" height="1024" viewBox="0 0 1024 1024">
<title></title>
<path d="M512 934.4c-233.307 0-422.4-189.093-422.4-422.4s189.093-422.4 422.4-422.4c233.307 0 422.4 189.093 422.4 422.4 0 21.208 17.192 38.4 38.4 38.4s38.4-17.192 38.4-38.4c0-275.723-223.477-499.2-499.2-499.2s-499.2 223.477-499.2 499.2c0 275.723 223.477 499.2 499.2 499.2 21.208 0 38.4-17.192 38.4-38.4s-17.192-38.4-38.4-38.4z"></path>
<path d="M934.4 512v460.8c0 21.208 17.192 38.4 38.4 38.4s38.4-17.192 38.4-38.4v-460.8c0-21.208-17.192-38.4-38.4-38.4s-38.4 17.192-38.4 38.4z"></path>
<path d="M512 1011.2h460.8c21.208 0 38.4-17.192 38.4-38.4s-17.192-38.4-38.4-38.4h-460.8c-21.208 0-38.4 17.192-38.4 38.4s17.192 38.4 38.4 38.4z"></path>
<path d="M409.6 755.2h204.8c21.208 0 38.4-17.192 38.4-38.4s-17.192-38.4-38.4-38.4h-204.8c-21.208 0-38.4 17.192-38.4 38.4s17.192 38.4 38.4 38.4z"></path>
<path d="M256 550.4h512c21.208 0 38.4-17.192 38.4-38.4s-17.192-38.4-38.4-38.4h-512c-21.208 0-38.4 17.192-38.4 38.4s17.192 38.4 38.4 38.4z"></path>
<path d="M358.4 345.6h307.2c21.208 0 38.4-17.192 38.4-38.4s-17.192-38.4-38.4-38.4h-307.2c-21.208 0-38.4 17.192-38.4 38.4s17.192 38.4 38.4 38.4z"></path>
</svg>
