<!-- Generated by IcoMoon.io -->
<svg version="1.1" xmlns="http://www.w3.org/2000/svg" width="922" height="1024" viewBox="0 0 922 1024">
<title></title>
<path d="M305.050 840.55v23.45c0 86.027 69.723 155.75 155.75 155.75s155.75-69.723 155.75-155.75v-23.45c0-21.208-17.192-38.4-38.4-38.4s-38.4 17.192-38.4 38.4v23.45c0 43.611-35.339 78.95-78.95 78.95s-78.95-35.339-78.95-78.95v-23.45c0-21.208-17.192-38.4-38.4-38.4s-38.4 17.192-38.4 38.4z"></path>
<path d="M591.619 183.45v-64c0-62.811-50.958-113.769-113.769-113.769h-34.15c-62.811 0-113.769 50.958-113.769 113.769v64c0 20.417 16.552 36.969 36.969 36.969s36.969-16.552 36.969-36.969v-64c0-21.976 17.855-39.831 39.831-39.831h34.15c21.976 0 39.831 17.855 39.831 39.831v64c0 20.417 16.552 36.969 36.969 36.969s36.969-16.552 36.969-36.969z"></path>
<path d="M780.8 418.15c0-150.795-122.255-273.050-273.050-273.050h-93.85c-150.795 0-273.050 122.255-273.050 273.050 0 21.208 17.192 38.4 38.4 38.4s38.4-17.192 38.4-38.4c0-108.379 87.87-196.25 196.25-196.25h93.85c108.379 0 196.25 87.87 196.25 196.25 0 21.208 17.192 38.4 38.4 38.4s38.4-17.192 38.4-38.4z"></path>
<path d="M140.8 418.15v145.306c0 16.946-6.754 33.241-18.756 45.244l-36.371 36.422c-24.792 24.792-38.722 58.416-38.722 93.489v50.739c0 49.47 40.13 89.6 89.6 89.6h648.55c49.47 0 89.6-40.13 89.6-89.6v-50.739c0-35.098-13.95-68.789-38.781-93.548l-36.364-36.364c-12.002-12.002-18.756-28.298-18.756-45.244v-145.306c0-21.208-17.192-38.4-38.4-38.4s-38.4 17.192-38.4 38.4v145.306c0 37.321 14.849 73.149 41.25 99.55l36.403 36.403c10.402 10.372 16.247 24.488 16.247 39.202v50.739c0 7.055-5.745 12.8-12.8 12.8h-648.55c-7.055 0-12.8-5.745-12.8-12.8v-50.739c0-14.702 5.838-28.793 16.247-39.202l36.371-36.422c26.382-26.382 41.231-62.21 41.231-99.531v-145.306c0-21.208-17.192-38.4-38.4-38.4s-38.4 17.192-38.4 38.4z"></path>
</svg>
