<!-- Generated by IcoMoon.io -->
<svg version="1.1" xmlns="http://www.w3.org/2000/svg" width="975" height="1024" viewBox="0 0 975 1024">
<title>calendar</title>
<path d="M646.095 48.762v195.048c0 20.198 16.374 36.571 36.571 36.571s36.571-16.374 36.571-36.571v-195.048c0-20.198-16.374-36.571-36.571-36.571s-36.571 16.374-36.571 36.571z"></path>
<path d="M256 48.762v195.048c0 20.198 16.374 36.571 36.571 36.571s36.571-16.374 36.571-36.571v-195.048c0-20.198-16.374-36.571-36.571-36.571s-36.571 16.374-36.571 36.571z"></path>
<path d="M48.762 426.667h877.714c20.198 0 36.571-16.374 36.571-36.571s-16.374-36.571-36.571-36.571h-877.714c-20.198 0-36.571 16.374-36.571 36.571s16.374 36.571 36.571 36.571z"></path>
<path d="M146.286 109.714h682.667c74.080 0 134.095 60.015 134.095 134.095v633.905c0 74.080-60.015 134.095-134.095 134.095h-682.667c-74.080 0-134.095-60.015-134.095-134.095v-633.905c0-74.080 60.015-134.095 134.095-134.095zM146.286 182.857c-33.684 0-60.952 27.268-60.952 60.952v633.905c0 33.684 27.268 60.952 60.952 60.952h682.667c33.684 0 60.952-27.268 60.952-60.952v-633.905c0-33.684-27.268-60.952-60.952-60.952h-682.667z"></path>
<path d="M439.541 584.384c-0.001 26.662 21.834 48.497 48.761 48.497s48.762-21.835 48.762-48.762c0-25.032-18.853-45.621-43.12-48.434l-6.206-0.325c-26.764 0.278-48.391 22.137-48.197 49.024z"></path>
<path d="M683.35 584.384c-0.001 26.662 21.834 48.497 48.761 48.497s48.762-21.835 48.762-48.762c0-25.032-18.853-45.621-43.12-48.434l-6.206-0.325c-26.764 0.278-48.391 22.137-48.197 49.024z"></path>
<path d="M195.731 779.431c-0.001 26.662 21.834 48.497 48.761 48.497s48.762-21.835 48.762-48.762c0-25.032-18.853-45.621-43.12-48.434l-6.206-0.325c-26.764 0.278-48.391 22.137-48.197 49.024z"></path>
<path d="M439.541 779.431c-0.001 26.662 21.834 48.497 48.761 48.497s48.762-21.835 48.762-48.762c0-25.032-18.853-45.621-43.12-48.434l-6.206-0.325c-26.764 0.278-48.391 22.137-48.197 49.024z"></path>
</svg>
