<!-- Generated by IcoMoon.io -->
<svg version="1.1" xmlns="http://www.w3.org/2000/svg" width="922" height="1024" viewBox="0 0 922 1024">
<title></title>
<path d="M83.763 652.8c-31.573 0-49.655-35.984-30.811-61.318l418.918-563.2c23.452-31.529 73.513-11.655 68.952 27.375l-36.873 315.543h333.888c31.573 0 49.655 35.984 30.811 61.318l-418.918 563.2c-23.452 31.529-73.513 11.655-68.952-27.375l36.873-315.543h-333.888zM160.184 576h300.616c22.974 0 40.807 20.038 38.14 42.857l-25.235 215.945 287.711-386.802h-300.616c-22.974 0-40.807-20.038-38.14-42.857l25.235-215.945-287.711 386.802z"></path>
</svg>
