<!-- Generated by IcoMoon.io -->
<svg version="1.1" xmlns="http://www.w3.org/2000/svg" width="1126" height="1024" viewBox="0 0 1126 1024">
<title></title>
<path d="M528.716 28.981c14.049-28.677 54.925-28.674 68.97 0.005l141.381 288.687 316.128 46.565c31.393 4.624 43.949 43.169 21.302 65.396l-228.874 224.634 54.027 317.415c5.346 31.411-27.681 55.293-55.835 40.374l-282.616-149.756-282.616 149.756c-28.154 14.919-61.181-8.963-55.835-40.374l54.027-317.415-228.874-224.634c-22.646-22.227-10.092-60.771 21.301-65.396l316.081-46.565 141.431-288.691zM282.144 634.478l10.958 33.849-14.326-14.060 3.368-19.788zM447.361 369.611c-5.566 11.361-16.371 19.252-28.888 21.096l-259.621 38.247 188.046 184.562c8.974 8.808 13.068 21.452 10.958 33.849l-44.307 260.307 231.672-122.761c11.246-5.959 24.713-5.959 35.959 0l231.672 122.761-44.307-260.307c-2.11-12.397 1.983-25.041 10.958-33.849l188.044-184.561-259.67-38.248c-12.519-1.844-23.325-9.737-28.891-21.101l-115.791-236.436-115.833 236.44z"></path>
</svg>
