<!-- Generated by IcoMoon.io -->
<svg version="1.1" xmlns="http://www.w3.org/2000/svg" width="1205" height="1024" viewBox="0 0 1205 1024">
<title></title>
<path d="M131.926 24.901c19.464-27.186 60.69-24.543 76.523 4.906 55.474 103.18 149.125 191.46 246.721 232.19 28.687-152.119 148.167-255.975 309.818-255.975 101.368 0 175.935 32.566 230.64 96.767l9.449 11.658h139.394c33.96 0 55.022 35.622 40.695 64.842l-3.106 5.394-100.929 151.515c-5.462 408.211-251.22 681.778-641.413 681.778-191.592 0-287.459-63.6-404.561-219.956l-13.092-17.885-2.332-4.156-2.253-5.401c-0.753-2.224-1.349-4.548-1.763-6.95l-0.609-5.489 0.049-5.176 0.097-1.201c0.553-6.084 2.343-11.891 5.148-17.124l2.905-4.709 2.17-2.849 2.284-2.536 3.314-3.104 4.979-3.659 4.156-2.332 5.401-2.253 7.003-1.845 2.689-1.006 88.947-29.928c-149.179-192.997-154.921-456.344-12.323-655.517zM764.988 96.376c-131.85 0-221.413 91.522-225.907 227.376-0.947 28.64-27.976 49.172-55.821 42.405-113.356-27.55-224.032-108.707-302.723-213.078l-11.56-15.826-7.53 15.432c-79.443 170.795-47.212 374.988 93.541 517.286 21.952 22.193 15.076 58.692-11.721 72.099l-6.044 2.506-102.555 34.301c88.347 108.95 162.053 148.746 305.048 148.746 336.128 0 543.902-228.91 550.967-586.43l0.239-21.269 0.711-6.004 1.487-5.783 1.786-4.574 3.55-6.364 61.6-92.399h-78.222c-15.188 0-29.36-7.632-37.719-20.313-39.471-59.88-92.37-88.11-179.128-88.11z"></path>
</svg>
