<!-- Generated by IcoMoon.io -->
<svg version="1.1" xmlns="http://www.w3.org/2000/svg" width="1024" height="1024" viewBox="0 0 1024 1024">
<title></title>
<path d="M972.8 473.6c21.208 0 38.4 17.192 38.4 38.4v204.8c0 21.208-17.192 38.4-38.4 38.4h-183.347c-61.349 0-111.053-49.704-111.053-111.053v-59.494c0-61.349 49.704-111.053 111.053-111.053h183.347zM934.4 550.4h-144.947c-18.933 0-34.253 15.32-34.253 34.253v59.494c0 18.933 15.32 34.253 34.253 34.253h144.947v-128z"></path>
<path d="M870.4 217.6c77.784 0 140.8 63.016 140.8 140.8v512c0 77.784-63.016 140.8-140.8 140.8h-716.8c-77.784 0-140.8-63.016-140.8-140.8v-512c0-77.784 63.016-140.8 140.8-140.8h716.8zM870.4 294.4h-716.8c-35.368 0-64 28.632-64 64v512c0 35.368 28.632 64 64 64h716.8c35.368 0 64-28.632 64-64v-512c0-35.368-28.632-64-64-64z"></path>
<path d="M641.553 228.847l-168.602-168.602c-35.021-35.021-91.771-35.021-126.737 0.035l-168.567 168.567c-14.996 14.996-14.996 39.31 0 54.306s39.31 14.996 54.306 0l168.602-168.602c5.004-5.017 13.074-5.017 18.091 0l168.602 168.602c14.996 14.996 39.31 14.996 54.306 0s14.996-39.31 0-54.306z"></path>
<path d="M539.153 180.753l66.202-66.202c5.017-5.017 13.087-5.017 18.056-0.035l168.636 168.636c14.996 14.996 39.31 14.996 54.306 0s14.996-39.31 0-54.306l-168.602-168.602c-34.932-35.021-91.681-35.021-126.703 0l-66.202 66.202c-14.996 14.996-14.996 39.31 0 54.306s39.31 14.996 54.306 0z"></path>
</svg>
