<!-- Generated by IcoMoon.io -->
<svg version="1.1" xmlns="http://www.w3.org/2000/svg" width="1024" height="1024" viewBox="0 0 1024 1024">
<title></title>
<path d="M512 1011.2c274.648 0 499.2-224.552 499.2-499.2s-224.552-499.2-499.2-499.2c-21.208 0-38.4 17.192-38.4 38.4s17.192 38.4 38.4 38.4c232.232 0 422.4 190.168 422.4 422.4s-190.168 422.4-422.4 422.4c-21.208 0-38.4 17.192-38.4 38.4s17.192 38.4 38.4 38.4z"></path>
<path d="M512 934.4c-133.617 0-257.359-63.672-337.145-169.633-12.757-16.942-36.833-20.335-53.774-7.578s-20.335 36.833-7.578 53.774c94.087 124.953 240.393 200.236 398.497 200.236 21.208 0 38.4-17.192 38.4-38.4s-17.192-38.4-38.4-38.4z"></path>
<path d="M564.736 547.84v-323.584c0-21.208-17.192-38.4-38.4-38.4s-38.4 17.192-38.4 38.4v323.584c0 21.208 17.192 38.4 38.4 38.4s38.4-17.192 38.4-38.4z"></path>
<path d="M294.129 731.331l251.904-150.528c18.205-10.879 24.144-34.456 13.266-52.661s-34.456-24.144-52.661-13.266l-251.904 150.528c-18.205 10.879-24.144 34.456-13.266 52.661s34.456 24.144 52.661 13.266z"></path>
<path d="M174.855 764.767c-55.016-73.063-85.255-160.84-85.255-252.767 0-232.232 190.168-422.4 422.4-422.4 21.208 0 38.4-17.192 38.4-38.4s-17.192-38.4-38.4-38.4c-274.648 0-499.2 224.552-499.2 499.2 0 108.846 35.804 212.776 100.703 298.964 12.757 16.942 36.833 20.334 53.775 7.577s20.334-36.833 7.577-53.775z"></path>
</svg>
