<!-- Generated by IcoMoon.io -->
<svg version="1.1" xmlns="http://www.w3.org/2000/svg" width="1024" height="1024" viewBox="0 0 1024 1024">
<title></title>
<path d="M742.605 12.8c148.337 0 268.595 120.258 268.595 268.595v461.261c0 148.295-120.267 268.544-268.595 268.544h-461.21c-148.337 0-268.595-120.258-268.595-268.595v-461.005c0-148.44 120.36-268.8 268.8-268.8h461.005zM742.605 89.6h-461.005c-106.024 0-192 85.976-192 192v461.005c0 105.922 85.873 191.795 191.795 191.795h461.21c105.915 0 191.795-85.867 191.795-191.744v-461.261c0-105.922-85.873-191.795-191.795-191.795z"></path>
<path d="M519.68 512v460.8c0 21.208 17.192 38.4 38.4 38.4s38.4-17.192 38.4-38.4v-460.8c0-21.208-17.192-38.4-38.4-38.4s-38.4 17.192-38.4 38.4z"></path>
<path d="M465.92 596.48h276.48c21.208 0 38.4-17.192 38.4-38.4s-17.192-38.4-38.4-38.4h-276.48c-21.208 0-38.4 17.192-38.4 38.4s17.192 38.4 38.4 38.4z"></path>
<path d="M596.48 512v-48.384c0-53.851 43.685-97.536 97.536-97.536h48.384c21.208 0 38.4-17.192 38.4-38.4s-17.192-38.4-38.4-38.4h-48.384c-96.267 0-174.336 78.069-174.336 174.336v48.384c0 21.208 17.192 38.4 38.4 38.4s38.4-17.192 38.4-38.4z"></path>
</svg>
