<!-- Generated by IcoMoon.io -->
<svg version="1.1" xmlns="http://www.w3.org/2000/svg" width="1024" height="1024" viewBox="0 0 1024 1024">
<title></title>
<path d="M511.445 12.804l14.732 0.194c263.752 7.363 477.146 219.542 484.823 484.859l0.2 14.143c0 270.243-215.002 491.185-485.057 499l-14.143 0.2c-270.243 0-491.185-215.002-499-485.057l-0.2-14.143c0-270.243 215.002-491.185 485.057-499l13.588-0.196zM499.524 89.78c-227.995 6.6-409.928 193.556-409.928 421.665l0.184 13.032c6.6 227.995 193.556 409.928 421.665 409.928l13.032-0.184c227.995-6.6 409.928-193.556 409.928-421.665l-0.184-13.032c-6.473-223.607-186.426-402.903-409.063-409.722l-12.891-0.201-12.742 0.18z"></path>
<path d="M557.256 466.744c24.994 24.994 24.994 65.516 0 90.51s-65.516 24.994-90.51 0c-24.994-24.994-24.994-65.516 0-90.51s65.516-24.994 90.51 0z"></path>
<path d="M762.056 466.744c24.994 24.994 24.994 65.516 0 90.51s-65.516 24.994-90.51 0c-24.994-24.994-24.994-65.516 0-90.51s65.516-24.994 90.51 0z"></path>
<path d="M352.455 466.744c24.994 24.994 24.994 65.516 0 90.51s-65.516 24.994-90.51 0c-24.994-24.994-24.994-65.516 0-90.51s65.516-24.994 90.51 0z"></path>
</svg>
