<!-- Generated by IcoMoon.io -->
<svg version="1.1" xmlns="http://www.w3.org/2000/svg" width="1024" height="1024" viewBox="0 0 1024 1024">
<title></title>
<path d="M376.234 376.236c-74.981 74.981-74.981 196.548 0 271.529s196.548 74.981 271.529 0c72.395-72.395 74.891-188.22 7.489-263.61l-7.489-7.919c-74.981-74.981-196.548-74.981-271.529 0zM593.458 593.459c-44.988 44.988-117.929 44.988-162.917 0s-44.988-117.929 0-162.917c42.846-42.846 111.046-44.886 156.306-6.121l6.611 6.121c44.988 44.988 44.988 117.929 0 162.917z"></path>
<path d="M485.888 12.8h52.275c57.662 0 104.397 46.735 104.397 104.397v3.43c0 8.664 4.44 16.536 11.215 20.807l3.573 1.823 8.996 3.651 5.044 1.651c8.196 1.879 16.895 0.080 24.533-5.499l11.385-9.958c41.334-33.24 101.438-30.183 139.2 7.578l36.966 36.966c38.605 38.605 40.637 100.001 7.321 139.711l-9.508 10.372c-5.786 7.214-7.794 16.636-5.531 25.63l1.49 4.449 3.595 8.851c3.503 8.901 12.421 14.882 22.482 14.882h3.43c57.662 0 104.397 46.735 104.397 104.397v52.275c0 57.662-46.735 104.397-104.397 104.397h-3.43c-8.648 0-16.413 4.374-20.627 11.155l-1.799 3.582-3.651 8.996-1.651 5.044c-1.879 8.196-0.080 16.895 5.499 24.533l9.958 11.385c33.24 41.334 30.183 101.438-7.578 139.2l-36.966 36.966c-38.605 38.605-100.001 40.637-139.683 7.346l-10.383-9.509c-7.27-5.819-16.769-7.844-25.823-5.597l-4.478 1.482-8.851 3.595c-8.901 3.503-14.882 12.421-14.882 22.482v3.43c0 57.662-46.735 104.397-104.397 104.397h-52.275c-57.662 0-104.397-46.735-104.397-104.397v-3.43c0-8.648-4.374-16.413-11.155-20.627l-3.582-1.799-8.996-3.651-5.044-1.651c-8.196-1.879-16.895-0.080-24.533 5.499l-11.385 9.958c-41.334 33.24-101.438 30.183-139.2-7.578l-36.966-36.966c-38.605-38.605-40.637-100.001-7.321-139.711l9.508-10.372c6.75-8.416 8.358-19.839 4.041-30.080l-3.595-8.851c-3.503-8.901-12.421-14.882-22.482-14.882h-3.43c-57.675 0-104.397-46.747-104.397-104.448v-52.275c0-57.662 46.735-104.397 104.397-104.397h3.43c8.64 0 16.456-4.408 20.678-11.17l1.799-3.568 3.734-9.246c4.014-9.52 2.764-20.212-3.932-29.379l-9.958-11.385c-33.24-41.334-30.183-101.438 7.597-139.218l36.999-36.948c38.605-38.605 100.001-40.637 139.711-7.321l10.372 9.508c8.416 6.75 19.839 8.358 29.514 4.281l9.416-3.886c8.901-3.503 14.882-12.421 14.882-22.482v-3.43c0-57.675 46.747-104.397 104.448-104.397zM217.594 636.75c15.157 36.045 9.326 77.319-16.382 109.279l-6.431 7.089c-10.757 10.757-10.757 28.274 0 39.032l36.966 36.966c9.961 9.961 25.901 10.772 35.178 3.384l10.173-9.216c30.388-25.857 72.905-32.644 109.949-17.022l7.507 3.051c38.526 15.129 63.583 52.527 63.583 93.957v3.43c0 15.247 12.35 27.597 27.597 27.597h52.275c15.247 0 27.597-12.35 27.597-27.597v-3.43c0-38.644 21.85-73.801 56.161-90.673l7.54-3.33 7.326-2.979c36.155-15.083 77.409-9.263 109.401 16.419l7.134 6.46c10.757 10.757 28.274 10.757 39.032 0l36.966-36.966c9.961-9.961 10.772-25.901 3.384-35.178l-9.216-10.173c-25.857-30.388-32.644-72.905-17.022-109.949l3.051-7.507c15.129-38.526 52.527-63.583 93.957-63.583h3.43c15.247 0 27.597-12.35 27.597-27.597v-52.275c0-15.247-12.35-27.597-27.597-27.597h-3.43c-38.644 0-73.801-21.85-90.673-56.161l-3.33-7.54-2.922-7.189c-15.21-36.069-9.391-77.389 16.34-109.378l6.431-7.089c10.757-10.757 10.757-28.274 0-39.032l-36.966-36.966c-9.961-9.961-25.901-10.772-35.178-3.384l-10.173 9.216c-30.388 25.857-72.905 32.644-109.949 17.022l-7.705-3.13c-38.413-15.332-63.435-52.725-63.435-94.083v-3.43c0-15.247-12.35-27.597-27.597-27.597h-52.275c-15.295 0-27.648 12.347-27.648 27.597v3.43c0 41.404-25.083 78.806-63.131 93.776l-16.17 6.337c-33.96 11.060-71.44 4.275-100.968-19.477l-7.089-6.431c-10.757-10.757-28.274-10.757-39.051 0.019l-36.999 36.948c-9.961 9.961-10.772 25.901-3.384 35.178l9.216 10.173c24.010 28.218 31.569 66.912 19.917 102.198l-3.031 8.076-6.245 14.771c-16.832 34.193-52.031 56.044-90.678 56.044h-3.43c-15.247 0-27.597 12.35-27.597 27.597v52.275c0 15.295 12.347 27.648 27.597 27.648h3.43c38.644 0 73.801 21.85 90.673 56.161l3.33 7.54 2.964 7.289z"></path>
</svg>
